<svg height="512pt" viewBox="0 0 512 512" width="512pt" xmlns="http://www.w3.org/2000/svg" xmlns:xlink="http://www.w3.org/1999/xlink"><linearGradient id="a" gradientUnits="userSpaceOnUse" x1="0" x2="512" y1="256" y2="256"><stop offset="0" stop-color="#00f38d"/><stop offset="1" stop-color="#009eff"/></linearGradient><path d="m512 256c0 141.386719-114.613281 256-256 256s-256-114.613281-256-256 114.613281-256 256-256 256 114.613281 256 256zm0 0" fill="url(#a)"/><g fill="#fff"><path d="m389.203125 91.484375h-266.40625c-23.261719 0-42.183594 18.925781-42.183594 42.1875v244.65625c0 23.261719 18.921875 42.1875 42.183594 42.1875h266.40625c23.261719 0 42.183594-18.925781 42.183594-42.1875v-244.65625c0-23.261719-18.921875-42.1875-42.183594-42.1875zm-266.40625 30h266.40625c6.71875 0 12.183594 5.46875 12.183594 12.1875v39.367187h-290.773438v-39.367187c0-6.71875 5.464844-12.1875 12.183594-12.1875zm266.40625 269.03125h-266.40625c-6.71875 0-12.183594-5.46875-12.183594-12.1875v-175.289063h290.773438v175.289063c0 6.71875-5.464844 12.1875-12.183594 12.1875zm0 0"/><path d="m269.59375 227.40625h106.019531v30h-106.019531zm0 0"/><path d="m136.390625 227.40625h106.019531v30h-106.019531zm0 0"/><path d="m269.59375 281.777344h106.019531v30h-106.019531zm0 0"/><path d="m136.390625 281.777344h106.019531v30h-106.019531zm0 0"/><path d="m269.59375 336.144531h78.832031v30h-78.832031zm0 0"/><path d="m136.390625 336.144531h106.019531v30h-106.019531zm0 0"/><path d="m156.777344 147.261719c0 7.507812-6.085938 13.59375-13.59375 13.59375-7.503906 0-13.589844-6.085938-13.589844-13.59375 0-7.503907 6.085938-13.589844 13.589844-13.589844 7.507812 0 13.59375 6.085937 13.59375 13.589844zm0 0"/><path d="m204.351562 147.261719c0 7.507812-6.085937 13.59375-13.59375 13.59375-7.507812 0-13.59375-6.085938-13.59375-13.59375 0-7.503907 6.085938-13.589844 13.59375-13.589844 7.507813 0 13.59375 6.085937 13.59375 13.589844zm0 0"/></g></svg>